PathFileType	4	(X/Y/Z)	C:\Users\ebm\Documents\Erivelton\Erivelton2\wc8.trc
DataRate	CameraRate	NumFrames	NumMarkers	Units	OrigDataRate	OrigDataStartFrame	OrigNumFrames
150.00	150.00	      5	28	mm	150.00	1003	      1146
Frame#	Time	IJ			PX			C7			T8			RAC			RAS			RPS			RAI			RPI			RLE			RME			RRS			RUS			R3M			R5M			LAC			LAS			LPS			LAI			LPI			LLE			LME			LRS			LUS			L3M			L5M			RW			LW			V_mid_elbow_r			V_mid_elbow_l			V_mid_wrist_r			V_mid_wrist_l			V_mid_trunk_low			V_mid_trunk_upp			
		X1	Y1	Z1	X2	Y2	Z2	X3	Y3	Z3	X4	Y4	Z4	X5	Y5	Z5	X6	Y6	Z6	X7	Y7	Z7	X8	Y8	Z8	X9	Y9	Z9	X10	Y10	Z10	X11	Y11	Z11	X12	Y12	Z12	X13	Y13	Z13	X14	Y14	Z14	X15	Y15	Z15	X16	Y16	Z16	X17	Y17	Z17	X18	Y18	Z18	X19	Y19	Z19	X20	Y20	Z20	X21	Y21	Z21	X22	Y22	Z22	X23	Y23	Z23	X24	Y24	Z24	X25	Y25	Z25	X26	Y26	Z26	X27	Y27	Z27	X28	Y28	Z28	

1003	6.680	4077.84033	1026.47546	252.51302	4075.34204	855.51245	278.31790	3950.84253	1127.62073	227.25496	3873.05444	983.30371	234.70535	3978.15674	1083.71863	441.96951	3956.59814	913.62628	532.07269	3908.79053	930.18329	529.46631	3939.54175	848.16315	572.16376	3888.45898	862.73596	569.51477	3895.32373	794.40594	598.84680	3869.58765	761.31073	527.41492	4134.62158	704.52167	505.44037	4121.36182	673.97723	557.79797	4209.24268	671.43677	528.84949	4192.70703	639.61597	549.69714	3998.68872	1062.19897	59.24959	3982.44409	916.86694	-31.78652	3936.66040	910.68683	-18.29914	3987.97729	845.97363	-70.37379	3935.62231	835.87567	-55.87195	3989.14404	760.39929	-103.51292	3944.08032	726.01270	-45.65604	4205.16699	685.91656	28.83953	4271.66748	622.62048	1.03019	4286.77539	650.24438	25.09266				3932.74463	294.05380	565.03632	4028.10400	294.82251	-57.41699	
1004	6.687	4085.70435	1026.36877	253.54262	4083.17334	855.52039	279.58643	3958.64038	1127.53320	228.13005	3880.93433	983.20227	235.69626	3985.53662	1083.81616	442.87534	3962.29761	914.39819	533.31647	3914.47729	931.19556	530.21442	3944.42358	849.32904	573.25769	3893.11255	863.60291	570.32861	3899.41724	795.88507	600.03046	3874.29590	762.63617	528.35431	4138.49414	703.05212	509.33612	4124.47363	672.78180	561.73322	4212.31250	669.22620	533.71777	4195.49365	637.90051	554.64728	4006.37402	1062.00439	60.24873	3988.76221	917.02740	-30.83295	3942.91528	911.13635	-16.85540	3993.40454	846.18585	-69.72096	3941.18262	836.39789	-54.77480	3993.65186	760.82794	-103.19252	3948.87622	726.61725	-45.20028	4210.67822	683.38171	26.52468	4275.08203	618.38062	-3.43605	4217.57813	641.65161	-24.01871				3940.22583	294.17038	566.16809	4035.85010	294.92487	-56.34151	
1005	6.693	4093.52759	1026.24939	254.71014	4091.05469	855.35797	280.78067	3966.37842	1127.47864	229.06882	3889.43140	982.60370	236.59055	3993.11353	1084.04321	443.75726	3967.83032	915.17383	534.51404	3920.35229	932.25824	530.88477	3949.40430	850.56244	574.33972	3898.23071	865.73981	570.98981	3903.42773	797.39935	601.06580	3878.38501	764.13727	529.33215	4142.34814	701.59113	513.21899	4127.19141	671.66626	565.55420	4215.40771	667.28644	538.76538	4198.20605	635.96600	559.24268	4014.00244	1061.79517	61.20938	3995.16382	917.23602	-29.93092	3949.43677	911.62622	-15.53111	3998.95752	846.45618	-68.99634	3946.45386	837.05457	-53.62127	3997.68823	761.37305	-103.38135	3953.66333	727.05676	-44.56418	4215.96729	680.87177	24.39158	4278.64844	614.55621	-7.89213							3947.77856	294.19598	567.24347	4221.82178	640.48120	-25.86109	
1006	6.700	4101.31055	1026.18481	255.68776	4098.87354	855.34692	281.86823	3974.20947	1127.42175	230.04295	3896.83936	982.91675	237.83881	4000.49121	1084.17236	444.60437	3973.48633	915.93292	535.68420	3926.14258	933.33124	531.52368	3954.24390	851.82855	575.28137	3903.12329	867.13611	571.59735	3907.35986	799.04718	602.24957	3883.51587	765.71906	530.16809	4146.11621	699.97607	517.04376	4130.12109	670.43433	569.24823	4218.59424	665.12360	543.54315	4200.77686	634.02698	564.21600	4021.63184	1061.49231	62.28792	4001.44409	917.44983	-28.95594	3955.84619	912.09723	-14.14413	4004.42798	846.79120	-68.21912	3952.16016	837.76532	-52.48090	4002.44995	761.92218	-103.33455	3958.94189	727.51434	-44.01459	4221.11865	678.26971	22.07385	4282.15186	611.43964	-11.96359	4225.63623	638.17743	-28.32125				3955.43408	294.09836	568.41309	4051.15454	294.87216	-53.82190	
1007	6.707	4109.24072	1026.12170	256.80072	4106.74072	855.31476	282.96277	3982.16138	1127.32520	231.00136	3904.77734	982.78149	238.89735	4007.94434	1084.32568	445.55545	3979.28979	916.76337	536.68219	3932.10352	934.50781	532.15894	3959.05591	853.05597	576.21075	3908.00195	868.78827	572.17578	3911.44629	800.71240	603.18134	3888.37964	767.01178	530.92993	4149.90283	698.53070	520.84473	4132.95215	669.35022	573.12201	4221.45361	663.10565	548.60980	4203.21094	632.22815	569.04028	4029.37354	1061.23950	63.34809	4007.82910	917.74768	-27.90019	3962.30884	912.62506	-12.76118	4009.94434	847.13086	-67.41915	3957.68677	838.38818	-51.20382				3962.37476	729.13330	-43.78290	4226.42383	675.72107	20.35155	4285.49658	608.22913	-16.26773	4229.36035	635.84436	-30.70237				3962.95947	294.13480	569.58276	4059.01514	294.86441	-52.75400	
